<?xml version="1.0" encoding="utf-8"?>
<!-- Generator: Adobe Illustrator 16.0.0, SVG Export Plug-In . SVG Version: 6.00 Build 0)  -->
<!DOCTYPE svg PUBLIC "-//W3C//DTD SVG 1.1//EN" "http://www.w3.org/Graphics/SVG/1.1/DTD/svg11.dtd">
<svg version="1.1" id="Capa_1" xmlns="http://www.w3.org/2000/svg" xmlns:xlink="http://www.w3.org/1999/xlink" x="0px" y="0px"
	 width="19px" height="10px" viewBox="6.516 11 19 10" enable-background="new 6.516 11 19 10" xml:space="preserve">
<g>
	<g>
		<path fill-rule="evenodd" clip-rule="evenodd" d="M6.666,11.06l0.18,0.02c0.6,0.07,0.6,0.52,0.6,0.52v8.83
			c0,0,0.05,0.43-0.54,0.471l-0.24,0.039v0.021h8.51v-3.3h-0.069c-0.381,1.65-1.561,3.22-3.291,3.22h-2.32v-5.21h0.94
			c1.3,0,1.85,1.061,2.1,2.17h0.07V13.4h-0.07c-0.27,1.29-0.87,2.19-2.25,2.19h-0.79v-4.47h2.24c1.871,0,2.6,1.91,2.8,2.54h0.061
			v-2.62H6.666V11.06z"/>
		<path fill-rule="evenodd" clip-rule="evenodd" d="M18.336,11.12c0.181-0.03,0.511-0.04,0.87-0.04c3.29,0,3.87,2,3.87,5.06
			c0,1.879-0.33,4.78-3.99,4.78c-0.26,0-0.479-0.02-0.75-0.04V11.12z M15.687,20.91l-0.17,0.029v0.021h0.77
			c1.07,0,2.13,0.04,3.21,0.04c2.18,0,5.88-0.84,5.88-5c0-4.19-3.66-5-6.21-5c-0.96,0-1.92,0.04-2.88,0.04h-0.77v0.02l0.189,0.04
			c0.57,0.07,0.58,0.44,0.58,0.44v8.91C16.286,20.45,16.267,20.83,15.687,20.91z"/>
	</g>
	<path fill-rule="evenodd" clip-rule="evenodd" d="M6.876,20.29h0.07c0.03,0,0.05-0.011,0.06-0.011c0.01-0.01,0.02-0.029,0.02-0.039
		l-0.01-0.03l-0.02-0.01l-0.06-0.011h-0.06V20.29z M6.826,20.471v-0.33h0.11l0.09,0.01c0.01,0.01,0.03,0.02,0.04,0.039
		c0.01,0.011,0.01,0.031,0.01,0.041c0,0.029-0.01,0.049-0.02,0.069c-0.02,0.011-0.04,0.03-0.07,0.03l0.03,0.02l0.05,0.061
		l0.04,0.061h-0.07l-0.03-0.051c-0.02-0.04-0.04-0.061-0.05-0.07l-0.05-0.02h-0.03v0.141H6.826z M6.956,20.05
		c-0.04,0-0.08,0.011-0.12,0.03s-0.07,0.061-0.1,0.1c-0.02,0.041-0.03,0.08-0.03,0.131c0,0.039,0.01,0.08,0.03,0.119
		c0.03,0.041,0.06,0.07,0.1,0.1c0.04,0.021,0.08,0.031,0.12,0.031c0.05,0,0.09-0.011,0.13-0.031c0.04-0.029,0.07-0.059,0.09-0.1
		c0.03-0.039,0.04-0.08,0.04-0.119c0-0.051-0.01-0.09-0.04-0.131c-0.02-0.039-0.05-0.08-0.09-0.1S7.006,20.05,6.956,20.05z
		 M6.956,20c0.06,0,0.1,0.01,0.15,0.04c0.05,0.021,0.09,0.06,0.12,0.11c0.02,0.05,0.04,0.1,0.04,0.16c0,0.049-0.02,0.1-0.04,0.149
		c-0.03,0.05-0.07,0.08-0.11,0.11c-0.05,0.029-0.1,0.039-0.16,0.039c-0.05,0-0.1-0.01-0.15-0.039c-0.05-0.03-0.08-0.061-0.11-0.11
		c-0.03-0.05-0.04-0.101-0.04-0.149c0-0.061,0.01-0.11,0.04-0.16c0.03-0.051,0.07-0.09,0.11-0.11C6.856,20.01,6.906,20,6.956,20z"/>
</g>
</svg>
