<?xml version="1.0" encoding="utf-8"?>
<!-- Generator: Adobe Illustrator 16.0.0, SVG Export Plug-In . SVG Version: 6.00 Build 0)  -->
<!DOCTYPE svg PUBLIC "-//W3C//DTD SVG 1.1//EN" "http://www.w3.org/Graphics/SVG/1.1/DTD/svg11.dtd">
<svg version="1.1" id="Capa_1" xmlns="http://www.w3.org/2000/svg" xmlns:xlink="http://www.w3.org/1999/xlink" x="0px" y="0px"
	 width="431px" height="35px" viewBox="-199.484 -1.5 431 35" enable-background="new -199.484 -1.5 431 35" xml:space="preserve">
<g>
	<path fill-rule="evenodd" clip-rule="evenodd" fill="#EF8E20" d="M-192.794,26.73h5.52c3.17,0,5.49-0.83,6.98-2.51
		c1.42-1.551,2.13-4.25,2.13-8.121c0-3.74-0.67-6.48-2.03-8.22c-1.3-1.74-3.36-2.61-6.21-2.61h-6.39V26.73z M-199.484,32.73V2.95
		c0-0.97,0.34-1.79,1.02-2.47c0.68-0.67,1.5-1.01,2.47-1.01h9.59c5.11,0,8.92,1.35,11.44,4.06c2.52,2.84,3.78,7.03,3.78,12.57
		c0,2.96-0.45,5.64-1.36,8.02c-1.03,2.45-2.39,4.319-4.06,5.61c-1.43,1.1-2.95,1.869-4.56,2.319c-1.55,0.45-3.91,0.681-7.08,0.681
		H-199.484z"/>
	<path fill="#EF8E20" d="M-167.844,32.73V2.95c0-0.97,0.34-1.79,1.02-2.47c0.68-0.67,1.5-1.01,2.47-1.01h3.4v33.26H-167.844z"/>
	<path fill-rule="evenodd" clip-rule="evenodd" fill="#EF8E20" d="M-142.784,6.14l-4.66,14.12h9.31L-142.784,6.14z M-144.334-0.53
		h5.42l12.12,33.26h-7.27l-2.23-6.871h-12.99l-2.13,6.871h-7.27l11.05-31.041C-147.054,0.21-145.955-0.53-144.334-0.53z"/>
	<path fill-rule="evenodd" clip-rule="evenodd" fill="#EF8E20" d="M-116.375,13.97h8.04c1.74,0,3.04-0.35,3.88-1.06
		c0.84-0.71,1.26-1.81,1.26-3.29s-0.42-2.58-1.26-3.29c-0.78-0.77-1.94-1.16-3.49-1.16h-8.43V13.97z M-123.264,32.73V2.95
		c0-0.97,0.34-1.79,1.02-2.47c0.68-0.67,1.5-1.01,2.47-1.01h12.7c3.62,0,6.3,0.77,8.04,2.32c1.81,1.61,2.72,3.96,2.72,7.06
		c0,2.06-0.46,3.77-1.36,5.12c-0.77,1.29-2,2.22-3.68,2.809c1.48,0.511,2.52,1.291,3.1,2.32c0.58,0.961,0.94,2.601,1.07,4.93
		l0.19,3.961v1.26c0,0.45,0.03,0.87,0.1,1.25c0.19,1.16,0.58,1.91,1.16,2.23h-7.56c-0.32-0.65-0.52-1.32-0.58-2.03
		c-0.13-1.03-0.2-1.74-0.2-2.13l-0.09-3.58c-0.13-1.93-0.52-3.32-1.16-4.15c-0.72-0.72-1.98-1.07-3.79-1.07h-7.26V32.73H-123.264z"
		/>
	<path fill="#EF8E20" d="M-92.395,32.73V2.95c0-0.97,0.34-1.79,1.02-2.47c0.68-0.67,1.5-1.01,2.47-1.01h3.4v33.26H-92.395z"/>
	<path fill-rule="evenodd" clip-rule="evenodd" fill="#EF8E20" d="M-76.935,16.1c0,3.74,0.81,6.57,2.42,8.509
		c1.62,1.99,3.91,2.99,6.89,2.99c2.9,0,5.2-1,6.88-2.99c1.67-2.06,2.51-4.899,2.51-8.509s-0.84-6.48-2.51-8.61
		c-1.68-1.99-3.98-2.99-6.88-2.99c-2.98,0-5.27,1-6.89,2.99C-76.125,9.49-76.935,12.36-76.935,16.1z M-83.814,16.1
		c0-5.42,1.42-9.7,4.26-12.86c3.04-3.16,7.01-4.74,11.93-4.74c4.84,0,8.81,1.58,11.92,4.74c2.9,3.22,4.36,7.51,4.36,12.86
		s-1.46,9.6-4.36,12.759c-2.98,3.101-6.95,4.641-11.92,4.641c-5.05,0-9.02-1.54-11.93-4.641C-82.395,25.77-83.814,21.51-83.814,16.1
		z"/>
	<path fill="#000101" d="M-34.685,32.73V2.95c0-0.97,0.35-1.79,1.02-2.47c0.68-0.67,1.5-1.01,2.48-1.01h20.75v5.7h-17.46v7.16h12.99
		v2.22c0,0.97-0.34,1.79-1.01,2.47c-0.68,0.67-1.51,1.01-2.48,1.01h-9.5V32.73H-34.685z"/>
	<path fill="#000101" d="M-7.294,32.73V2.95c0-0.97,0.34-1.79,1.02-2.47c0.68-0.67,1.5-1.01,2.47-1.01h3.39v33.26H-7.294z"/>
	<path fill="#000101" d="M1.866,32.73V2.95c0-0.97,0.34-1.79,1.02-2.47c0.68-0.67,1.5-1.05,2.47-1.11h3.68l13.57,22.909V-0.63h6.79
		v33.36h-7.08L8.646,9.81v22.92H1.866z"/>
	<path fill-rule="evenodd" clip-rule="evenodd" fill="#000101" d="M48.625,6.14l-4.639,14.12h9.299L48.625,6.14z M47.086-0.53h5.42
		l12.119,33.26h-7.27l-2.23-6.871H42.136l-2.13,6.871h-7.27L43.785,1.69C44.365,0.21,45.466-0.53,47.086-0.53z"/>
	<path fill="#000101" d="M68.156,32.73V2.95c0-0.97,0.34-1.79,1.02-2.47c0.68-0.67,1.5-1.05,2.47-1.11h3.69l13.56,22.909V-0.63h6.79
		v33.36h-7.08L74.945,9.81v22.92H68.156z"/>
	<path fill="#000101" d="M128.785,21.221c-0.33,3.869-1.779,6.899-4.359,9.09c-2.65,2.129-6.141,3.189-10.471,3.189
		c-5.039,0-8.89-1.51-11.539-4.54c-2.65-2.899-3.971-7.19-3.971-12.86c0-5.8,1.36-10.15,4.07-13.06c2.779-3.03,6.79-4.54,12.02-4.54
		c4.26,0,7.66,1.06,10.181,3.19c2.39,2.06,3.739,4.97,4.069,8.7h-4.17c-1.55,0-2.649-0.67-3.3-2.03c-0.45-0.83-1-1.58-1.64-2.22
		c-1.301-0.97-3.01-1.45-5.141-1.45c-2.97,0-5.27,0.96-6.879,2.9c-1.551,1.93-2.33,4.77-2.33,8.51c0,3.61,0.779,6.38,2.33,8.31
		c1.479,2,3.709,3,6.68,3c2.07,0,3.789-0.52,5.14-1.551c1.229-0.959,2.101-2.51,2.62-4.639H128.785z"/>
	<path fill="#000101" d="M132.226,32.73V2.95c0-0.97,0.34-1.79,1.011-2.47c0.68-0.67,1.51-1.01,2.479-1.01h3.39v33.26H132.226z"/>
	<path fill="#000101" d="M141.375,32.73V2.95c0-0.97,0.341-1.79,1.021-2.47c0.681-0.67,1.5-1.01,2.47-1.01h20.74v5.7h-17.439v7.16
		h12.99v2.22c0,0.97-0.341,1.79-1.021,2.47c-0.681,0.67-1.5,1.01-2.47,1.01h-9.5v8.511h17.439v6.19H141.375z"/>
	<path fill-rule="evenodd" clip-rule="evenodd" fill="#000101" d="M175.636,13.97h8.05c1.74,0,3.03-0.35,3.87-1.06
		s1.26-1.81,1.26-3.29s-0.42-2.58-1.26-3.29c-0.771-0.77-1.931-1.16-3.479-1.16h-8.44V13.97z M168.756,32.73V2.95
		c0-0.97,0.34-1.79,1.02-2.47c0.68-0.67,1.5-1.01,2.471-1.01h12.699c3.62,0,6.301,0.77,8.041,2.32c1.809,1.61,2.719,3.96,2.719,7.06
		c0,2.06-0.459,3.77-1.359,5.12c-0.78,1.29-2,2.22-3.689,2.809c1.489,0.511,2.529,1.291,3.109,2.32c0.58,0.961,0.93,2.601,1.07,4.93
		l0.189,3.961v1.26c0,0.45,0.03,0.87,0.09,1.25c0.2,1.16,0.59,1.91,1.17,2.23h-7.56c-0.33-0.65-0.521-1.32-0.58-2.03
		c-0.13-1.03-0.2-1.74-0.2-2.13l-0.09-3.58c-0.14-1.93-0.52-3.32-1.17-4.15c-0.71-0.72-1.97-1.07-3.779-1.07h-7.271V32.73H168.756z"
		/>
	<path fill-rule="evenodd" clip-rule="evenodd" fill="#000101" d="M205.926,16.1c0,3.74,0.811,6.57,2.42,8.509
		c1.62,1.99,3.91,2.99,6.88,2.99c2.91,0,5.21-1,6.89-2.99c1.68-2.06,2.521-4.899,2.521-8.509s-0.841-6.48-2.521-8.61
		c-1.68-1.99-3.979-2.99-6.89-2.99c-2.97,0-5.26,1-6.88,2.99C206.736,9.49,205.926,12.36,205.926,16.1z M199.045,16.1
		c0-5.42,1.421-9.7,4.261-12.86c3.04-3.16,7.021-4.74,11.92-4.74c4.851,0,8.819,1.58,11.931,4.74c2.899,3.22,4.359,7.51,4.359,12.86
		s-1.46,9.6-4.359,12.759c-2.98,3.101-6.951,4.641-11.931,4.641c-5.04,0-9.01-1.54-11.92-4.641
		C200.466,25.77,199.045,21.51,199.045,16.1z"/>
</g>
</svg>
