<?xml version="1.0" encoding="utf-8"?>
<!-- Generator: Adobe Illustrator 16.0.0, SVG Export Plug-In . SVG Version: 6.00 Build 0)  -->
<!DOCTYPE svg PUBLIC "-//W3C//DTD SVG 1.1//EN" "http://www.w3.org/Graphics/SVG/1.1/DTD/svg11.dtd">
<svg version="1.1" id="Capa_1" xmlns="http://www.w3.org/2000/svg" xmlns:xlink="http://www.w3.org/1999/xlink" x="0px" y="0px"
	 width="51px" height="10px" viewBox="-9.484 11 51 10" enable-background="new -9.484 11 51 10" xml:space="preserve">
<g>
	<polygon fill-rule="evenodd" clip-rule="evenodd" points="-9.485,11.06 -3.415,11.06 -3.415,11.68 -6.085,11.68 -6.115,20.93 
		-6.835,20.93 -6.805,11.68 -9.485,11.68 	"/>
	<path fill-rule="evenodd" clip-rule="evenodd" d="M-2.735,20.93V11h0.71v3.55c0.95-0.89,2.65-0.83,3.65-0.22
		c0.54,0.31,0.89,0.79,0.9,1.45v0.04v5.11h-0.7v-5.11v-0.03c-0.02-0.38-0.23-0.66-0.56-0.86c-0.37-0.22-0.86-0.32-1.37-0.33h-0.04
		c-0.69,0.01-1.37,0.22-1.69,0.64c-0.14,0.2-0.19,0.41-0.19,0.64v5.05H-2.735z"/>
	<path fill-rule="evenodd" clip-rule="evenodd" d="M4.765,17.67c0.61-0.029,2.1,0.13,3.04-0.33c1.2-0.561,0.97-2.25-0.28-2.6
		c-0.53-0.14-1.14-0.14-1.68,0c-0.6,0.17-1.08,0.53-1.08,1.08V17.67z M4.765,19.01c0,0.221,0.04,0.41,0.17,0.59
		c0.24,0.32,0.68,0.551,1.17,0.631c0.38,0.069,0.73,0.069,1.11,0c0.52-0.07,1-0.28,1.31-0.711l0.61,0.36
		c-0.41,0.66-1.1,0.95-1.82,1.06c-0.42,0.07-0.8,0.08-1.23,0.011c-0.71-0.11-1.36-0.431-1.73-0.931
		c-0.22-0.319-0.31-0.67-0.31-1.069v-3.13c0-0.93,0.71-1.51,1.62-1.76c0.66-0.18,1.38-0.18,2.04,0c1.83,0.55,2.14,2.99,0.44,3.89
		c-0.99,0.54-2.44,0.34-3.38,0.34V19.01z"/>
	<polygon fill-rule="evenodd" clip-rule="evenodd" points="20.186,20.93 19.436,20.93 15.195,12.96 14.846,12.02 14.785,12.02 
		14.915,13.02 14.915,20.93 14.215,20.93 14.215,11.06 14.975,11.06 19.215,19.02 19.564,19.95 19.605,19.95 19.475,18.95 
		19.475,11.06 20.186,11.06 	"/>
	<path fill-rule="evenodd" clip-rule="evenodd" d="M26.335,19.09v-3.27c0-0.55-0.479-0.91-1.08-1.08
		c-0.271-0.07-0.55-0.12-0.851-0.12c-0.299,0-0.579,0.05-0.84,0.12c-0.609,0.17-1.09,0.52-1.09,1.08v3.27
		c0,0.641,0.631,1.051,1.371,1.17c0.52,0.09,1.049,0.061,1.549-0.109C25.925,19.971,26.335,19.6,26.335,19.09z M27.035,19.09
		c0,0.881-0.6,1.439-1.42,1.721c-0.6,0.199-1.25,0.229-1.891,0.129c-1.05-0.18-1.949-0.789-1.949-1.85v-3.27
		c0-0.93,0.699-1.52,1.6-1.76c0.34-0.1,0.68-0.14,1.029-0.14c0.351,0,0.701,0.04,1.031,0.14c0.899,0.24,1.6,0.83,1.6,1.76V19.09z"/>
	<path fill-rule="evenodd" clip-rule="evenodd" d="M29.936,11.03V14h1.68v0.64c-0.561,0-1.11,0-1.68,0.01v4.331
		c0,1.18,0.879,1.299,1.81,1.319v0.65c-1.29,0.069-2.511-0.39-2.511-1.96v-4.35h-1.209V14h1.209v-2.97H29.936z"/>
	<path fill-rule="evenodd" clip-rule="evenodd" d="M33.484,17.67c0.611-0.029,2.101,0.13,3.041-0.33c1.199-0.561,0.97-2.25-0.28-2.6
		c-0.53-0.14-1.14-0.14-1.681,0c-0.6,0.17-1.08,0.53-1.08,1.08V17.67z M33.484,19.01c0,0.221,0.041,0.41,0.17,0.59
		c0.24,0.32,0.681,0.551,1.171,0.631c0.38,0.069,0.729,0.069,1.11,0c0.52-0.07,1-0.28,1.31-0.711l0.61,0.36
		c-0.41,0.66-1.101,0.95-1.82,1.06c-0.42,0.07-0.801,0.08-1.23,0.011c-0.709-0.11-1.359-0.431-1.729-0.931
		c-0.22-0.319-0.31-0.67-0.31-1.069v-3.13c0-0.93,0.709-1.51,1.619-1.76c0.66-0.18,1.381-0.18,2.04,0c1.83,0.55,2.14,2.99,0.44,3.89
		c-0.99,0.54-2.44,0.34-3.381,0.34V19.01z"/>
</g>
</svg>
